<svg width="208" height="200" version="1.0" viewBox="0 0 156 150"><path d="M54.5 28.1c-5.8 1.4-6.4 2.7-.7 1.6 4.3-.9 5.5-.7 9.6 1.2 9 4.4 9.2 2.9-4.7 36.2-15 35.6-15 35.7-19 37.4-3 1.4-2.7 1.4 5.8 1.4 6.6 0 8.5-.2 7.3-1-2.6-1.5-2.2-4.5 1.8-15.3l3.7-9.6h29.2l3 8.7c8.7 26.1 21.6 40.4 36 40.2 6.8-.1 10.8-1.7 4.5-1.9-8.7-.1-16-5.4-23.3-17.1-4.6-7.2-7.1-13.2-16.8-40.6-9.1-25.7-12.7-33.2-17.8-37.4-5.6-4.6-10.7-5.6-18.6-3.8zm25.9 31.2C83.5 68 86 75.5 86 76c0 .6-5.5 1-13.1 1-12.1 0-13.1-.1-12.5-1.8 6.9-18.4 13.1-33.1 13.7-32.5.4.4 3.2 7.9 6.3 16.6z"/></svg>