<?xml version="1.0" standalone="no"?>
<!DOCTYPE svg PUBLIC "-//W3C//DTD SVG 20010904//EN"
 "http://www.w3.org/TR/2001/REC-SVG-20010904/DTD/svg10.dtd">
<svg version="1.0" xmlns="http://www.w3.org/2000/svg"
 width="156.000000pt" height="150.000000pt" viewBox="0 0 156.000000 150.000000"
 preserveAspectRatio="xMidYMid meet">

<g transform="translate(0.000000,150.000000) scale(0.100000,-0.100000)"
fill="#000000" stroke="none">
<path d="M545 1219 c-58 -14 -64 -27 -7 -16 43 9 55 7 96 -12 90 -44 92 -29
-47 -362 -150 -356 -150 -357 -190 -374 -30 -14 -27 -14 58 -14 66 0 85 2 73
10 -26 15 -22 45 18 153 l37 96 146 0 146 0 30 -87 c87 -261 216 -404 360
-402 68 1 108 17 45 19 -87 1 -160 54 -233 171 -46 72 -71 132 -168 406 -91
257 -127 332 -178 374 -56 46 -107 56 -186 38z m259 -312 c31 -87 56 -162 56
-167 0 -6 -55 -10 -131 -10 -121 0 -131 1 -125 18 69 184 131 331 137 325 4
-4 32 -79 63 -166z"/>
</g>
</svg>
